# xmcd CD database file
#
# Track frame offsets:
#	150
#	23001
#	41002
#	55006
#	68048
#	79878
#	94324
#	104107
#	116383
#	127681
#	141688
#	155274
#	174892
#	203846
#
# Disc length: 2956 seconds
#
# Revision: 0
# Processed by: cddbd v1.5.1PL0 Copyright (c) Steve Scherf et al.
# Submitted via: CDex 1.51
#
DISCID=b90b8a0e
DTITLE=Nina Simone - The artistry of Nina Simone
DYEAR=1900
DGENRE=Blues
TTITLE0=Mr. Bojangles
TTITLE1=I shall be released
TTITLE2=Do what you gotta do
TTITLE3=Since I fell for you
TTITLE4=I want a little sugar in my bowl
TTITLE5=I can't see nobody
TTITLE6=Ain't got no - I got life
TTITLE7=To love somebody
TTITLE8=Turn me on
TTITLE9=Seems I'm never tired loving you
TTITLE10=Romance in the dark
TTITLE11=My man's gone now
TTITLE12=How long must I wander
TTITLE13=Blues for Mama
EXTD=
EXTT0=
EXTT1=
EXTT2=
EXTT3=
EXTT4=
EXTT5=
EXTT6=
EXTT7=
EXTT8=
EXTT9=
EXTT10=
EXTT11=
EXTT12=
EXTT13=
PLAYORDER=
